<svg xmlns="http://www.w3.org/2000/svg" xmlns:xlink="http://www.w3.org/1999/xlink" width="119" height="32" viewBox="0 0 119 32">
  <defs>
    <clipPath id="clip-path">
      <rect id="사각형_2716" data-name="사각형 2716" width="67" height="20" transform="translate(0 0)" fill="none"/>
    </clipPath>
  </defs>
  <g id="그룹_1271" data-name="그룹 1271" transform="translate(-32)">
    <g id="그룹_1260" data-name="그룹 1260">
      <g id="그룹_2" data-name="그룹 2" transform="translate(32 6)">
        <g id="그룹_1" data-name="그룹 1" clip-path="url(#clip-path)">
          <path id="패스_1" data-name="패스 1" d="M123.429,19.4a9.868,9.868,0,0,1-2.585.381c-2.727,0-4.179-1.168-4.179-3.654V1.181h1.529c1.594,0,2.114.929,2.114,2.221V4.536h3.123v.878a1.911,1.911,0,0,1-2.153,1.958h-.969v8.116c0,.889.3,1.521,1.56,1.521a5.791,5.791,0,0,0,1.561-.248c0,.3,0,2.642,0,2.642M113.959,6.96a6.682,6.682,0,0,1,1.668.258V4.536a16.557,16.557,0,0,0-3.044-.348c-2.406,0-4.1.993-4.1,3.6V19.425h3.642V8.508c0-.964.613-1.548,1.837-1.548M93.045,8.406c0-1.5-.846-4.206-5.715-4.206a6.344,6.344,0,0,0-3.856.9,7.212,7.212,0,0,0-3.856-.9c-4.5,0-5.714,2.241-5.714,4.1V19.425h3.673V8.54c0-.63.355-1.582,2.04-1.582,1.309,0,2.02.662,2.02,1.582V19.425h3.673V8.54c0-.917.7-1.582,2.019-1.582,1.441,0,2.041.737,2.041,1.582v8.391A2.319,2.319,0,0,0,91.847,19.5h1.2Zm7.764-4.215c4.6,0,6.261,2.178,6.261,5.076v4.711c0,3.311-2.123,5.808-6.519,5.808-4.208,0-6.5-1.975-6.5-4.639,0-2.123,1.443-3.522,4.577-4.385.456-.126,1.983-.581,2.676-.784,1.583-.463,2.091-.823,2.091-1.507,0-.722-.88-1.511-2.67-1.511-2.139,0-2.812,1.322-2.823,2.275H94.564c0-2.947,1.756-5.044,6.245-5.044m-.549,12.823a3.015,3.015,0,0,0,3.141-3.163V12.066s-2.781.8-3.561,1.033c-1.389.422-2.056,1.13-2.056,2.056s.764,1.859,2.476,1.859" transform="translate(-56.583 -0.304)" fill="#484c56"/>
          <path id="패스_2" data-name="패스 2" d="M7.283,18.859C2.214,18.859,0,15.753,0,11.826V7.585C0,2.127,3.639,0,7.908,0c5.154,0,7.408,2.805,7.408,5.61,0,4.1-4.187,5.1-6.037,5.635-.532.154-2.495.739-2.937.867-1.728.5-2.223,1.06-2.223,1.695,0,1.084.947,2.024,3.164,2.024,1.928,0,3.338-.656,3.573-2.671H14.89c-.416,3.188-2.332,5.7-7.607,5.7M7.737,3.036c-2.241,0-3.708,1.5-3.708,4.054V9.772s3.032-.886,4.3-1.27c1.06-.322,2.959-.995,2.959-2.668,0-1.458-1.183-2.8-3.549-2.8" transform="translate(0.843 0.614)" fill="#fbb416"/>
        </g>
      </g>
      <text id="FBP" transform="translate(107 25)" fill="#202f51" font-size="24" font-family="Roboto-Bold, Roboto" font-weight="700"><tspan x="0" y="0">FBP</tspan></text>
    </g>
  </g>
</svg>
