<svg xmlns="http://www.w3.org/2000/svg" width="20" height="20" viewBox="0 0 20 20">
  <g id="상승icon" transform="translate(20.422 20.324) rotate(180)">
    <rect id="사각형_4155" data-name="사각형 4155" width="20" height="20" rx="6" transform="translate(20.422 20.324) rotate(180)" fill="#4caf50"/>
    <g id="icon" transform="translate(2.541 2.541)">
      <path id="합치기_224" data-name="합치기 224" d="M3.4,9.832.237,6.975a.752.752,0,0,1-.08-1.007.636.636,0,0,1,.94-.085l2.1,1.9V.715A.692.692,0,0,1,3.866,0a.692.692,0,0,1,.666.715v7.1l2.4-1.956A.639.639,0,0,1,7.864,6a.748.748,0,0,1-.127,1l-3.5,2.857A.633.633,0,0,1,3.4,9.832Z" transform="translate(3.881 2.783)" fill="#fff"/>
      <rect id="사각형_4156" data-name="사각형 4156" width="14" height="14" transform="translate(0.881 0.783)" fill="none"/>
    </g>
  </g>
</svg>
