<svg xmlns="http://www.w3.org/2000/svg" xmlns:xlink="http://www.w3.org/1999/xlink" width="19" height="14" viewBox="0 0 19 14">
  <defs>
    <clipPath id="clip-path">
      <rect id="사각형_2716" data-name="사각형 2716" width="19" height="14" fill="#aaa"/>
    </clipPath>
  </defs>
  <g id="그룹_1031" data-name="그룹 1031" clip-path="url(#clip-path)">
    <path id="패스_628" data-name="패스 628" d="M3.326,0h.059L6.453.053A.444.444,0,0,1,6.889.5L6.866,1.832a.445.445,0,0,1-.451.436L3.347,2.215a1.116,1.116,0,0,0-1.009.609,1.2,1.2,0,0,0-.119.539v7.23A1.109,1.109,0,0,0,3.328,11.7H6.274a.443.443,0,0,1,.444.443v1.329a.443.443,0,0,1-.444.443H3.328A3.326,3.326,0,0,1,0,10.593V3.42A3.443,3.443,0,0,1,.923,1.026,3.308,3.308,0,0,1,3.326,0" fill="#aaa"/>
    <path id="패스_629" data-name="패스 629" d="M17.368,6.182l-3.417-3.33L11.294.261a.93.93,0,0,0-1.556.776V4.272H4.789a.89.89,0,0,0-.883.9V8.7a.89.89,0,0,0,.883.9H9.738v3.279a.93.93,0,0,0,1.556.776l2.657-2.591,3.417-3.33a1.108,1.108,0,0,0,0-1.552" transform="translate(0.579 0)" fill="#aaa"/>
  </g>
</svg>
