<svg xmlns="http://www.w3.org/2000/svg" width="18" height="18" viewBox="0 0 18 18">
  <path id="빼기_1" data-name="빼기 1" d="M9,18A9,9,0,0,1,2.636,2.637,9,9,0,1,1,15.364,15.363,8.94,8.94,0,0,1,9,18Zm-.022-5.684a1.007,1.007,0,0,0-.719.283.933.933,0,0,0,0,1.368,1.053,1.053,0,0,0,1.437,0,.933.933,0,0,0,0-1.368A1.007,1.007,0,0,0,8.978,12.316Zm0-7.351a1.7,1.7,0,0,1,1.221.415,1.372,1.372,0,0,1,.435,1.035,1.6,1.6,0,0,1-.327.961,5.935,5.935,0,0,1-.937.974,3.446,3.446,0,0,0-.85,1,3.612,3.612,0,0,0-.239,1.45H9.733A3.238,3.238,0,0,1,9.894,9.69a3.6,3.6,0,0,1,.858-.994A4.624,4.624,0,0,0,11.7,7.563a2.449,2.449,0,0,0,.3-1.2,2.5,2.5,0,0,0-.785-1.844A3.082,3.082,0,0,0,8.978,3.75a3.08,3.08,0,0,0-1.9.573A3.178,3.178,0,0,0,6,5.712l1.22.511a2.767,2.767,0,0,1,.6-.849A1.579,1.579,0,0,1,8.978,4.966Z" transform="translate(0)" fill="#cbcbcb"/>
</svg>
