<svg xmlns="http://www.w3.org/2000/svg" xmlns:xlink="http://www.w3.org/1999/xlink" width="20" height="20" viewBox="0 0 20 20">
  <defs>
    <clipPath id="clip-path">
      <path id="패스_1644" data-name="패스 1644" d="M0,0H20V20H0Z" fill="none"/>
    </clipPath>
    <clipPath id="clip-path-2">
      <rect id="사각형_2768" data-name="사각형 2768" width="13" height="17" fill="none"/>
    </clipPath>
  </defs>
  <g id="그룹_11" data-name="그룹 11" clip-path="url(#clip-path)">
    <g id="그룹_1066" data-name="그룹 1066" transform="translate(4 2)">
      <g id="그룹_1065" data-name="그룹 1065" clip-path="url(#clip-path-2)">
        <path id="패스_1645" data-name="패스 1645" d="M10.8,16.317H1.544A1.547,1.547,0,0,1,0,14.771V1.546A1.547,1.547,0,0,1,1.544,0h6.54A1.545,1.545,0,0,1,9.228.509L11.95,3.525a1.545,1.545,0,0,1,.4,1.037V14.771A1.547,1.547,0,0,1,10.8,16.317M1.544,1.329a.219.219,0,0,0-.221.217V14.771a.219.219,0,0,0,.221.217H10.8a.219.219,0,0,0,.221-.217V4.562a.216.216,0,0,0-.056-.144L8.248,1.4a.223.223,0,0,0-.165-.073Z" transform="translate(0 0)" fill="#666"/>
        <path id="패스_1646" data-name="패스 1646" d="M20.546,6.4H17.459a1.547,1.547,0,0,1-1.544-1.546V1.326h1.323V4.853a.219.219,0,0,0,.221.217h3.087Z" transform="translate(-8.896 -0.739)" fill="#666"/>
        <path id="패스_1647" data-name="패스 1647" d="M10.526,16.945l.89-1.588a.44.44,0,0,1,.384-.226h.7a.443.443,0,0,1,.381.666l-1.336,2.309,1.408,2.433a.443.443,0,0,1-.381.666h-.709a.44.44,0,0,1-.383-.224L10.532,19.3,9.586,20.98a.441.441,0,0,1-.384.225H8.488a.443.443,0,0,1-.381-.666l1.408-2.433L8.183,15.8a.443.443,0,0,1,.382-.665h.706a.441.441,0,0,1,.386.229Z" transform="translate(-4.498 -8.427)" fill="#107c41"/>
      </g>
    </g>
  </g>
</svg>
