<svg xmlns="http://www.w3.org/2000/svg" xmlns:xlink="http://www.w3.org/1999/xlink" width="189" height="48" viewBox="0 0 189 48">
  <defs>
    <clipPath id="clip-path">
      <rect id="사각형_2716" data-name="사각형 2716" width="110" height="33" transform="translate(0 -0.028)" fill="none"/>
    </clipPath>
  </defs>
  <g id="그룹_1266" data-name="그룹 1266" transform="translate(-871 -253)">
    <g id="그룹_2" data-name="그룹 2" transform="translate(871 260.028)">
      <g id="마스크_그룹_1" data-name="마스크 그룹 1" transform="translate(0 0)" clip-path="url(#clip-path)">
        <path id="패스_1" data-name="패스 1" d="M155.4,31.167a16.238,16.238,0,0,1-4.254.627c-4.488,0-6.877-1.922-6.877-6.013V1.181h2.515c2.623,0,3.479,1.529,3.479,3.655V6.7H155.4V8.147c0,2.058-1.423,3.222-3.543,3.222h-1.6V24.724c0,1.462.5,2.5,2.568,2.5a9.53,9.53,0,0,0,2.569-.408c0,.5,0,4.348,0,4.348M139.815,10.691a11,11,0,0,1,2.745.425V6.7a27.245,27.245,0,0,0-5.01-.572c-3.958,0-6.753,1.634-6.753,5.925V31.2h5.994V13.238c0-1.586,1.009-2.547,3.024-2.547M105.4,13.069c0-2.462-1.392-6.921-9.4-6.921-4.11,0-5.757,1.084-6.345,1.483a11.867,11.867,0,0,0-6.346-1.483c-7.4,0-9.4,3.688-9.4,6.744V31.2h6.045V13.291c0-1.036.583-2.6,3.357-2.6,2.154,0,3.324,1.089,3.324,2.6V31.2h6.045V13.291c0-1.509,1.147-2.6,3.322-2.6,2.371,0,3.359,1.213,3.359,2.6V27.1c0,2.707,1.574,4.233,4.075,4.233H105.4Zm12.777-6.936c7.564,0,10.3,3.584,10.3,8.352v7.752c0,5.449-3.494,9.556-10.728,9.556-6.925,0-10.7-3.251-10.7-7.633,0-3.493,2.374-5.8,7.532-7.216.75-.207,3.262-.956,4.4-1.29,2.6-.761,3.441-1.355,3.441-2.479,0-1.187-1.447-2.486-4.393-2.486-3.52,0-4.628,2.176-4.646,3.743H107.9c0-4.849,2.89-8.3,10.277-8.3m-.9,21.1a4.961,4.961,0,0,0,5.169-5.2V19.092s-4.577,1.31-5.86,1.7c-2.285.695-3.383,1.86-3.383,3.383s1.257,3.058,4.074,3.058" transform="translate(-45.46 0.308)" fill="#484c56"/>
        <path id="패스_2" data-name="패스 2" d="M11.985,31.034C3.644,31.034,0,25.923,0,19.46V12.481C0,3.5,5.988,0,13.012,0,21.494,0,25.2,4.616,25.2,9.232c0,6.739-6.891,8.392-9.935,9.272-.875.254-4.105,1.216-4.833,1.426-2.843.823-3.658,1.744-3.658,2.789,0,1.784,1.559,3.33,5.206,3.33,3.172,0,5.493-1.08,5.879-4.4H24.5c-.685,5.246-3.838,9.38-12.517,9.38M12.732,5c-3.688,0-6.1,2.467-6.1,6.67v4.414s4.99-1.458,7.073-2.09c1.745-.53,4.87-1.637,4.87-4.389C18.572,7.2,16.625,5,12.732,5" transform="translate(1.329 1.056)" fill="#fbb416"/>
      </g>
    </g>
    <text id="FBP" transform="translate(994 291)" fill="#14203d" font-size="36" font-family="Roboto-Bold, Roboto" font-weight="700"><tspan x="0" y="0">FBP</tspan></text>
  </g>
</svg>
